<svg xmlns="http://www.w3.org/2000/svg" width="200" height="200"><path fill="#FFF" fill-rule="evenodd" d="M77.181 116.692h-.28V88.06c-.096.023-.169.031-.236.057-1.233.48-2.464.963-3.7 1.437-.153.06-.142.16-.142.278l.001 29.577v.247H88.012c.03 0 .065.011.089-.002.064-.033.151-.06.183-.117.496-.882.985-1.768 1.519-2.729-.157-.045-.281-.112-.405-.112-4.072-.006-8.145-.004-12.217-.004zm19.554-12.938h.278c3.354 0 6.707-.002 10.061.006.23.001.333-.089.432-.275.392-.73.804-1.449 1.196-2.18.103-.192.264-.383.164-.657H96.739v-9.14c.164-.023.31-.057.457-.06 1.247-.019 2.494-.035 3.741-.046 2.1-.018 4.201-.028 6.302-.053a.515.515 0 0 0 .359-.169c.645-.82 1.276-1.65 1.905-2.484.099-.13.161-.289.262-.472H92.643v31.432h16.452c.037 0 .079.012.111-.002.06-.026.136-.052.166-.103.114-.187.209-.386.317-.579.284-.512.576-1.022.855-1.538.122-.224.22-.462.352-.743H96.735v-12.937zm44.38 12.654l-1.904-4.136-1.28-2.775-1.916-4.154c-.351-.758-.703-1.516-1.053-2.275l-1.599-3.477c-.35-.759-.703-1.517-1.053-2.275-.589-1.27-1.179-2.54-1.765-3.813-.564-1.225-1.123-2.452-1.685-3.677-.371-.806-.756-1.606-1.111-2.419-.118-.27-.279-.374-.557-.315-.015.003-.029.01-.011.003-.205.453-.396.89-.597 1.318-.382.817-.773 1.631-1.158 2.447-.498 1.055-.992 2.112-1.49 3.166-.385.816-.775 1.631-1.16 2.447-.514 1.088-1.026 2.177-1.539 3.265-.369.783-.742 1.564-1.111 2.348l-1.538 3.265c-.37.782-.742 1.565-1.111 2.347l-1.538 3.265c-.369.784-.743 1.565-1.112 2.348-.514 1.088-1.022 2.18-1.538 3.266-.472.995-.952 1.986-1.426 2.98-.039.081-.061.17-.096.27.087-.015.149-.032.213-.034.401-.018.803-.036 1.204-.046.663-.018 1.326-.035 1.99-.043.185-.002.294-.063.375-.239.455-.985.922-1.965 1.385-2.947.386-.816.773-1.63 1.158-2.447.516-1.096 1.032-2.19 1.545-3.287.211-.45.431-.9.61-1.364.071-.183.147-.234.331-.234 3.369.005 6.738.004 10.106.004h.267c-.528-1.054-1.04-2.077-1.551-3.102h-7.513l4.851-11.222c.079.184.131.313.189.44l1.18 2.531 1.856 3.99a2072.446 2072.446 0 0 1 3.787 8.206c.234.507.469 1.011.698 1.518.536 1.19 1.063 2.382 1.603 3.57.616 1.353 1.243 2.703 1.864 4.055.097.21.188.421.291.653h4.477c-.18-.4-.345-.775-.516-1.146-.349-.76-.702-1.516-1.052-2.275zm17.649-12.776a9.57 9.57 0 0 0 2.278-.912c1.2-.655 2.194-1.528 2.88-2.73a7.844 7.844 0 0 0 .945-2.767c.043-.294.088-.587.133-.88v-1.618c-.039-.197-.074-.395-.117-.592-.201-.933-.626-1.76-1.189-2.524a6.991 6.991 0 0 0-2.682-2.189 13.133 13.133 0 0 0-1.696-.653 12.12 12.12 0 0 0-3.542-.546c-3.743-.025-7.487-.009-11.231-.009h-.234v31.432h4.075V90.772h.291c1.946 0 3.893-.006 5.839.004.594.004 1.19.02 1.778.096.585.075 1.171.195 1.738.36a3.788 3.788 0 0 1 1.901 1.24c.667.807.915 1.778.975 2.798.027.481-.021.967-.038 1.45a6.497 6.497 0 0 1-.446 2.1c-.473 1.238-1.316 2.147-2.469 2.774a9.847 9.847 0 0 1-3.28 1.082c-.777.118-1.555.248-2.339.304-.832.061-1.671.04-2.506.056-.069.002-.138.008-.22.011.187.292.361.564.537.833.795 1.214 1.589 2.43 2.387 3.641.785 1.194 1.576 2.385 2.362 3.578.773 1.176 1.543 2.355 2.317 3.53 1.106 1.676 2.216 3.35 3.318 5.03.094.142.198.181.361.18l4.11-.003v-.135c-.252-.366-.51-.729-.754-1.1a950.705 950.705 0 0 1-2.324-3.575c-.7-1.082-1.392-2.17-2.095-3.25-.929-1.434-1.866-2.86-2.797-4.292-.663-1.02-1.323-2.04-1.983-3.063-.019-.03-.026-.067-.037-.093.519-.072 1.036-.122 1.546-.219.739-.14 1.478-.295 2.208-.477zM68.789 83.275c.289.187.561.4.869.621-.091.075-.167.15-.255.208-.787.508-1.582 1.005-2.362 1.527-.17.113-.271.088-.424-.005-.596-.36-1.183-.74-1.806-1.047a12.811 12.811 0 0 0-3.092-1.033 35.645 35.645 0 0 0-2.429-.404 21.495 21.495 0 0 0-1.662-.167 16.131 16.131 0 0 0-1.894-.009c-.923.036-1.449.103-2.349.258-1.094.148-2.137.487-3.159.897-.853.342-1.666.76-2.44 1.255a16.852 16.852 0 0 0-2.201 1.696c-.828.748-1.536 1.594-2.189 2.495a15.223 15.223 0 0 0-1.461 2.48c-.568 1.215-1.029 2.472-1.274 3.796-.138.75-.247 1.505-.359 2.26-.162 1.075-.12 2.161-.074 3.237.037.885.206 1.766.343 2.644.201 1.287.617 2.512 1.132 3.703a15.19 15.19 0 0 0 2.144 3.576c.472.582.98 1.141 1.522 1.657a14.989 14.989 0 0 0 3.048 2.243 16.36 16.36 0 0 0 3.14 1.36c.856.263 1.723.478 2.614.57a24.35 24.35 0 0 0 1.747.132c.675.023 1.353.045 2.025-.005 1.014-.056 1.666-.153 2.61-.305 1.176-.208 2.249-.422 3.313-.835 1.044-.406 2.047-.913 3.064-1.387.159-.074.251-.064.388.054.417.362.855.7 1.284 1.047.252.204.501.41.777.636-.113.097-.218.212-.344.29-.745.454-1.469.95-2.247 1.338-1.475.74-3.035 1.27-4.645 1.638-.77.177-1.548.322-2.329.446-.502.081-1.014.097-1.521.145-.02.002-.79.051-2.069.051-1.132 0-2.054-.048-2.066-.05-.594-.062-1.192-.102-1.782-.188a27.217 27.217 0 0 1-2.143-.38 21.158 21.158 0 0 1-2.974-.91c-1.368-.528-2.671-1.178-3.884-1.997a16.303 16.303 0 0 1-1.714-1.313c-.693-.618-1.386-1.249-1.986-1.954-.635-.746-1.187-1.567-1.729-2.386-.697-1.055-1.212-2.207-1.641-3.396-.454-1.255-.816-2.535-.99-3.862-.103-.788-.18-1.58-.271-2.37-.005-.039-.029-.075-.044-.113v-3.01c.015-.023.039-.045.042-.069.077-.665.117-1.337.236-1.995.152-.833.328-1.666.566-2.477a18.85 18.85 0 0 1 1.934-4.39 19.78 19.78 0 0 1 2.771-3.593c.426-.442.894-.846 1.369-1.236.562-.46 1.132-.919 1.737-1.319a19.907 19.907 0 0 1 3.286-1.768c1.033-.433 2.082-.823 3.174-1.07a47.25 47.25 0 0 1 2.846-.54c.581-.096.991-.158 1.939-.23.597-.038.904-.05 1.48-.059.505-.008.925.021 1.44.06.92.075 1.359.132 1.94.228.946.155 1.9.3 2.823.55.971.262 1.919.618 2.86.977 1.191.453 2.279 1.11 3.346 1.797z"/></svg>