<svg width="200" height="200" xmlns="http://www.w3.org/2000/svg"><title>Logo_Binance</title><path d="M180 108.75v-3.406h-9.584v-3.688h8.327V98.22h-8.327v-3.563h9.458V91.22h-13.291v17.531H180Zm-16.56-2.813-2.482-2.468c-1.382 1.25-2.608 2.062-4.65 2.062-3.017 0-5.122-2.5-5.122-5.5v-.094c0-3 2.137-5.468 5.122-5.468 1.76 0 3.142.75 4.525 1.969l2.482-2.844c-1.634-1.594-3.614-2.719-6.944-2.719-5.405 0-9.207 4.094-9.207 9.063V100c0 5.031 3.865 9.031 9.05 9.031 3.393.031 5.404-1.156 7.227-3.094Zm-20.015 2.844V91.22h-3.833v10.812l-8.264-10.812h-3.583v17.531h3.834V97.625l8.547 11.156h3.299Zm-25.577-7.344h-4.682l2.356-5.687 2.326 5.688Zm7.07 7.344-7.573-17.656h-3.582l-7.573 17.656h3.99l1.603-3.937h7.447l1.603 3.937h4.085Zm-21.493 0V91.22h-3.833v10.812L91.328 91.22h-3.583v17.531h3.834V97.625l8.547 11.156h3.299Zm-20.864 0V91.22h-3.896v17.531h3.896v.031Zm-12.003-5.312c0 1.312-1.037 1.906-2.734 1.906h-4.619v-3.844h4.493c1.98 0 2.86.719 2.86 1.906v.032Zm-.974-7c0 1.312-1.069 1.844-2.797 1.844h-3.582v-3.72h3.833c1.634 0 2.546.657 2.546 1.813v.063Zm4.839 7.5v-.063c0-2.344-1.257-3.531-3.3-4.312 1.257-.688 2.326-1.813 2.326-3.781v-.063c0-2.75-2.231-4.531-5.813-4.531h-8.202v17.531h8.39c3.99.031 6.599-1.594 6.599-4.781Zm-38.335-.375 3.645-3.625-3.645-3.594L32.443 100l3.645 3.594Zm0 5.187-6.222-6.219-3.644 3.626L36.088 116l9.866-9.813-3.644-3.624-6.222 6.218Zm12.443-12.406L44.918 100l3.644 3.625L52.207 100l-3.676-3.625Zm-12.443-5.156 6.222 6.187 3.644-3.625L36.088 84l-9.866 9.813 3.644 3.624 6.222-6.218ZM27.258 100l-3.613 3.594L20 100l3.645-3.625L27.258 100Z" fill="#FFF" fill-rule="evenodd"/></svg>