<svg width="200" height="200" xmlns="http://www.w3.org/2000/svg" xmlns:xlink="http://www.w3.org/1999/xlink"><title>Logo_UFL</title><defs><path id="a" d="M0 0h120v34.231H0z"/></defs><g transform="translate(40 83)" fill="none" fill-rule="evenodd"><mask id="b" fill="#fff"><use xlink:href="#a"/></mask><path d="m117.432 4.11-1.014-3.09v3.09h-.754V0h1.179l.997 3.202.97-3.202H120v4.11h-.754V1.02l-1.009 3.09h-.805ZM113.194.657h-1.264V0h3.345v.657h-1.27V4.11h-.81V.657ZM29.164.028V25.23c0 .969-.485 1.368-1.426 1.368H10.814a1.67 1.67 0 0 1-1.67-1.67V.027H0V23.97c0 1.368.399 2.053 1.425 2.88l8.066 6.355c.884.741 1.653 1.026 2.936 1.026h13.396c1.311 0 2.052-.285 2.936-1.026l8.066-6.356c1.083-.883 1.425-1.653 1.425-2.879V.028h-9.087ZM79.64 7.662V.028H56.423c-1.312 0-2.053.286-2.936 1.027L45.392 7.41c-1.083.883-1.425 1.653-1.425 2.878v23.942h9.144V23.144h26.53v-7.579H53.11V9.332c0-.922.748-1.67 1.67-1.67h24.86ZM120 26.57v7.633H97.466c-1.311 0-2.052-.285-2.936-1.026l-8.066-6.356c-1.026-.827-1.425-1.511-1.425-2.88V0h9.144v24.899c0 .922.748 1.67 1.67 1.67H120Z" fill="#FFF" mask="url(#b)"/></g></svg>