<svg width="200" height="200" xmlns="http://www.w3.org/2000/svg" xmlns:xlink="http://www.w3.org/1999/xlink"><title>Logo_LiveScore</title><defs><path id="a" d="M0 0h31.227v31H0z"/><path d="M9.89 0c-.378 0-.756 0-1.132.004-.319 0-.637.004-.955.012-.696.01-1.39.07-2.077.182a6.973 6.973 0 0 0-1.974.647A6.633 6.633 0 0 0 .85 3.724a6.924 6.924 0 0 0-.65 1.96C.085 6.367.024 7.056.015 7.747c-.008.318-.012.632-.014.95C0 9.066 0 9.442 0 9.818v11.362c0 .376 0 .751.002 1.123 0 .318.006.632.014.95.01.69.07 1.38.183 2.061.118.682.337 1.343.65 1.961a6.633 6.633 0 0 0 2.903 2.88 6.972 6.972 0 0 0 1.974.646c.687.113 1.381.174 2.077.182A110.747 110.747 0 0 0 9.89 31h11.447c.378 0 .755 0 1.132-.004.318 0 .636-.004.954-.012.696-.008 1.39-.069 2.077-.182a6.964 6.964 0 0 0 1.974-.647 6.63 6.63 0 0 0 2.903-2.879 6.937 6.937 0 0 0 .65-1.96c.113-.682.174-1.371.183-2.062.009-.318.012-.632.014-.95.003-.372.003-.747.003-1.123V9.819c0-.376 0-.752-.002-1.124a45.318 45.318 0 0 0-.014-.949c-.009-.69-.07-1.38-.182-2.061a6.937 6.937 0 0 0-.651-1.961 6.631 6.631 0 0 0-2.903-2.88A6.967 6.967 0 0 0 25.5.199a14.36 14.36 0 0 0-2.077-.182 38.902 38.902 0 0 0-.954-.012C22.09 0 21.714 0 21.337 0H9.89Z" id="c"/><path d="M0 0v13.762c0 .994.125 1.828.375 2.502.25.675.63 1.216 1.14 1.624.51.409 1.144.697 1.904.866.76.168 1.64.253 2.641.253h1.185c.491 0 .862-.027.862-.027l.658-3.538c-.161.017-1.865.008-2.276.008-.483 0-.872-.066-1.166-.155-.295-.089-.523-.222-.684-.4-.161-.177-.264-.412-.309-.705a6.884 6.884 0 0 1-.066-1.024V0H0Z" id="e"/><path d="M7.53 0C6.12 0 4.932.106 3.967.32c-.965.212-1.742.545-2.331.997A3.724 3.724 0 0 0 .375 3.02C.125 3.703 0 4.523 0 5.48V6.127l.001.23c.004.281.018.561.047.84.028.275.07.549.13.819.058.258.132.512.232.756.093.228.207.447.342.653l.068.1c.09.129.187.253.295.366a2.2 2.2 0 0 0 .38.312c.143.094.294.174.447.248.17.082.341.158.513.235.062.028 1.183.417 1.297.454l.35.114.337.11.306.099.255.082.183.06.092.03c.178.065.352.154.502.271.16.125.284.284.355.473.069.183.086.38.1.571.015.197.022.394.024.59v.056c0 .373-.04.679-.12.918-.081.24-.233.43-.456.572-.224.142-.528.244-.912.306a9.417 9.417 0 0 1-1.46.093c-.84 0-.757-.017-2.169-.053l-.67 3.565c.74.043 1.052.053 1.499.053h1.286c1.412 0 2.6-.106 3.565-.319.965-.213 1.742-.545 2.331-.998a3.724 3.724 0 0 0 1.26-1.702c.25-.683.375-1.504.375-2.461v-.645l-.001-.231a9.577 9.577 0 0 0-.047-.84 7.115 7.115 0 0 0-.13-.819 4.697 4.697 0 0 0-.232-.756 3.842 3.842 0 0 0-.342-.653 3.024 3.024 0 0 0-.363-.465 2.2 2.2 0 0 0-.38-.313 3.964 3.964 0 0 0-.447-.248c-.17-.082-.341-.158-.513-.235a75.942 75.942 0 0 0-1.297-.454 389.495 389.495 0 0 0-.687-.223l-.306-.1-.255-.082-.183-.06c-.031-.01-.062-.019-.092-.03a1.84 1.84 0 0 1-.502-.27 1.083 1.083 0 0 1-.355-.474 2.049 2.049 0 0 1-.1-.571 8.655 8.655 0 0 1-.024-.59v-.056c0-.372.04-.678.12-.918.081-.24.233-.43.457-.572.223-.142.527-.244.91-.306a9.412 9.412 0 0 1 1.461-.093c.84 0 .757.018 2.169.053l.67-3.565A22.603 22.603 0 0 0 8.816 0H7.531Z" id="h"/><path d="M.526 6.231a9.188 9.188 0 0 0-.326 4.97h1.66c.204 0 .409-.001.613-.004.318 0 .636-.003.954-.011a13.83 13.83 0 0 0 2.077-.182 6.961 6.961 0 0 0 1.974-.647 6.63 6.63 0 0 0 2.903-2.88 6.936 6.936 0 0 0 .65-1.96c.113-.682.174-1.371.183-2.062.008-.317.012-.631.014-.95.002-.371.002-.747.002-1.123V.188A9.373 9.373 0 0 0 9.366 0c-3.87 0-7.49 2.4-8.84 6.231" id="k"/><path d="m.534 1.369.054.026c.576.285 1.4.661 1.652.617.777-.137 1.673-.408 2.923-.575.25-.033.382-1.437.382-1.437l.002.014V.02c.015.098.064.568-.068 1.61 0 0-1.946.184-3.44.815 0 0-.87-.71-2.007-1.333L0 1.094c.024.013.241.129.534.275" id="n"/><path d="M9.89 0c-.378 0-.756 0-1.132.004-.319 0-.637.004-.955.012-.696.01-1.39.07-2.077.182a6.973 6.973 0 0 0-1.974.647A6.633 6.633 0 0 0 .85 3.724a6.924 6.924 0 0 0-.65 1.96C.085 6.367.024 7.056.015 7.747c-.008.318-.012.632-.014.95C0 9.066 0 9.442 0 9.818v11.362c0 .376 0 .751.002 1.123 0 .318.006.632.014.95.01.69.07 1.38.183 2.061.118.682.337 1.343.65 1.961a6.633 6.633 0 0 0 2.903 2.88 6.972 6.972 0 0 0 1.974.646c.687.113 1.381.174 2.077.182A110.747 110.747 0 0 0 9.89 31h11.447c.378 0 .755 0 1.132-.004.318 0 .636-.004.954-.012.696-.008 1.39-.069 2.077-.182a6.964 6.964 0 0 0 1.974-.647 6.63 6.63 0 0 0 2.903-2.879 6.937 6.937 0 0 0 .65-1.96c.113-.682.174-1.371.183-2.062.009-.318.012-.632.014-.95.003-.372.003-.747.003-1.123V9.819c0-.376 0-.752-.002-1.124a45.318 45.318 0 0 0-.014-.949c-.009-.69-.07-1.38-.182-2.061a6.937 6.937 0 0 0-.651-1.961 6.631 6.631 0 0 0-2.903-2.88A6.967 6.967 0 0 0 25.5.199a14.36 14.36 0 0 0-2.077-.182 38.902 38.902 0 0 0-.954-.012C22.09 0 21.714 0 21.337 0H9.89Z" id="q"/><path d="M9.89 0c-.378 0-.756 0-1.132.004-.319 0-.637.004-.955.012-.696.01-1.39.07-2.077.182a6.973 6.973 0 0 0-1.974.647A6.633 6.633 0 0 0 .85 3.724a6.924 6.924 0 0 0-.65 1.96C.085 6.367.024 7.056.015 7.747c-.008.318-.012.632-.014.95C0 9.066 0 9.442 0 9.818v11.362c0 .376 0 .751.002 1.123 0 .318.006.632.014.95.01.69.07 1.38.183 2.061.118.682.337 1.343.65 1.961a6.633 6.633 0 0 0 2.903 2.88 6.972 6.972 0 0 0 1.974.646c.687.113 1.381.174 2.077.182A110.747 110.747 0 0 0 9.89 31h11.447c.378 0 .755 0 1.132-.004.318 0 .636-.004.954-.012.696-.008 1.39-.069 2.077-.182a6.964 6.964 0 0 0 1.974-.647 6.63 6.63 0 0 0 2.903-2.879 6.937 6.937 0 0 0 .65-1.96c.113-.682.174-1.371.183-2.062.009-.318.012-.632.014-.95.003-.372.003-.747.003-1.123V9.819c0-.376 0-.752-.002-1.124a45.318 45.318 0 0 0-.014-.949c-.009-.69-.07-1.38-.182-2.061a6.937 6.937 0 0 0-.651-1.961 6.631 6.631 0 0 0-2.903-2.88A6.967 6.967 0 0 0 25.5.199a14.36 14.36 0 0 0-2.077-.182 38.902 38.902 0 0 0-.954-.012C22.09 0 21.714 0 21.337 0" id="s"/><path d="M9.89 0c-.378 0-.756 0-1.132.004-.319 0-.637.004-.955.012-.696.01-1.39.07-2.077.182a6.973 6.973 0 0 0-1.974.647A6.633 6.633 0 0 0 .85 3.724a6.924 6.924 0 0 0-.65 1.96C.085 6.367.024 7.056.015 7.747c-.008.318-.012.632-.014.95C0 9.066 0 9.442 0 9.818v11.362c0 .376 0 .751.002 1.123 0 .318.006.632.014.95.01.69.07 1.38.183 2.061.118.682.337 1.343.65 1.961a6.633 6.633 0 0 0 2.903 2.88 6.972 6.972 0 0 0 1.974.646c.687.113 1.381.174 2.077.182A110.747 110.747 0 0 0 9.89 31h11.447c.378 0 .755 0 1.132-.004.318 0 .636-.004.954-.012.696-.008 1.39-.069 2.077-.182a6.964 6.964 0 0 0 1.974-.647 6.63 6.63 0 0 0 2.903-2.879 6.937 6.937 0 0 0 .65-1.96c.113-.682.174-1.371.183-2.062.009-.318.012-.632.014-.95.003-.372.003-.747.003-1.123V9.819c0-.376 0-.752-.002-1.124a45.318 45.318 0 0 0-.014-.949c-.009-.69-.07-1.38-.182-2.061a6.937 6.937 0 0 0-.651-1.961 6.631 6.631 0 0 0-2.903-2.88A6.967 6.967 0 0 0 25.5.199a14.36 14.36 0 0 0-2.077-.182 38.902 38.902 0 0 0-.954-.012C22.09 0 21.714 0 21.337 0" id="u"/><path d="M7.744.075C6.364.324 5.555 1.4 5.353 1.703c-.145.057-1.772.715-3.344 2.136l-.006.007c-.154.02-.364.06-.5.136-.296.455-.555.94-.772 1.455l-.007.016a9.482 9.482 0 0 0-.042.103l-.014.033-.035.089-.015.04a8.594 8.594 0 0 0-.033.086l-.014.04a9.271 9.271 0 0 0-.042.114l-.003.009v.003a9.91 9.91 0 0 0-.057.164l-.01.034a9.51 9.51 0 0 0-.052.162l-.01.03a9.52 9.52 0 0 0-.047.162l-.002.008a9.263 9.263 0 0 0-.047.171l-.007.027a8.9 8.9 0 0 0-.043.172 8.993 8.993 0 0 0-.044.191v.001l-.037.182A9.18 9.18 0 0 0 0 8.972c.596-1.084 1.007-1.49 1.14-1.604a12.533 12.533 0 0 0 2.207 1.488c.024.233.123 1.06.39 2.058.592-.02 1.182-.079 1.767-.175a6.961 6.961 0 0 0 1.973-.647 6.654 6.654 0 0 0 1.534-1.07 36.429 36.429 0 0 1-2.386-2.203c.324-2.166.835-3.39.922-3.588 1.98-.697 3.26-.83 3.609-.855l.07-.007.002-.128c.002-.372.002-.747.002-1.123V.405l-.02-.007C10.932.315 9.808 0 8.648 0c-.304 0-.61.022-.905.075m-6.56 7.18c.003-.189.035-.741.28-1.817.217-.956.482-1.35.626-1.51a.893.893 0 0 1 .047-.048l.04-.036c.01-.007.015-.012.018-.015 1.457-1.283 2.93-1.91 3.174-2.008 1.248.707 1.886 1.235 2.06 1.388-.115.269-.604 1.49-.918 3.583-.296.132-1.646.762-3.119 1.957a12.45 12.45 0 0 1-2.207-1.494" id="w"/><path d="M1.1 0c1.002 1.024 2.012 1.457 2.012 1.457.069.68.197 1.314.336 1.852l-.004-.016h-.02l-.16.004c-.264.006-.53.008-.794.008l-.226.002-.397.002H.197A9.2 9.2 0 0 1 0 1.616C.506.614 1.012.088 1.09.01l.007-.007L1.1 0Z" id="z"/><path d="M0 4.22C0 5.82.96 7.216 2.378 7.942c.307-.37.575-.772.797-1.203a6.936 6.936 0 0 0 .65-1.961c.113-.682.174-1.37.183-2.062.009-.317.012-.631.015-.949.002-.372.002-.748.002-1.124V0C1.755.268 0 2.055 0 4.22" id="B"/><linearGradient x1="79.98%" y1="-16.326%" x2="30.831%" y2="89.478%" id="f"><stop stop-color="#0A0C0C" offset="0%"/><stop stop-color="#282929" offset="100%"/></linearGradient><linearGradient x1="73.112%" y1="9.474%" x2="12.907%" y2="115.04%" id="i"><stop stop-color="#0A0C0C" offset="0%"/><stop stop-color="#282929" offset="100%"/></linearGradient><linearGradient x1="47.29%" y1="60.505%" x2="50.965%" y2="43.059%" id="o"><stop stop-color="#1D1D1B" offset="0%"/><stop stop-color="#FEFEFE" offset="100%"/></linearGradient><linearGradient x1="0%" y1="50.102%" x2="100.007%" y2="50.102%" id="x"><stop stop-color="#0A0C0C" offset="0%"/><stop stop-color="#282929" offset="100%"/></linearGradient><linearGradient x1="42.308%" y1="22.012%" x2="74.086%" y2="84.258%" id="C"><stop stop-color="#FEFEFE" offset="0%"/><stop stop-color="#FEFEFE" offset="100%"/></linearGradient><radialGradient cx="82.74%" cy="58.519%" fx="82.74%" fy="58.519%" r="99.521%" gradientTransform="scale(.9974 1) rotate(33.085 .828 .589)" id="l"><stop stop-color="#FEFEFE" offset="0%"/><stop stop-color="#969695" offset="86.667%"/><stop stop-color="#1D1D1B" offset="100%"/></radialGradient></defs><g fill="none" fill-rule="evenodd"><path d="m178.187 97.773-.585-1.123v1.966h-.661V95.6h.75l.794 1.538.768-1.538H180v3.016h-.661v-1.987l-.585 1.144h-.567Zm-1.55-2.173-.114.589h-.913v2.427h-.704v-2.427h-1.016l.111-.589h2.637Zm-110.171 8.558c0 .394.022.739.067 1.034.045.296.15.533.312.712.162.18.392.314.69.404.297.089.69.156 1.178.156.414 0 4.574.05 4.736.033L72.827 110c-.65.036-2.522.054-3.018.054h-1.53c-1.01 0-1.899-.085-2.666-.255-.767-.17-1.407-.461-1.922-.873-.514-.413-.898-.96-1.15-1.64-.253-.68-.38-1.523-.38-2.526V90.868h4.305v13.29Zm100.173-5.444c-.487 0-.88.04-1.178.121-.298.08-.532.224-.704.43-.171.206-.288.488-.351.847-.064.358-.095.824-.095 1.397h4.683c0-.573-.032-1.039-.095-1.397-.063-.359-.185-.64-.365-.847a1.42 1.42 0 0 0-.718-.43c-.297-.08-.69-.12-1.177-.12Zm-2.328 5.751c.018.466.067.842.149 1.128.08.287.225.52.433.7.207.178.482.3.825.362.343.063.776.094 1.3.094h2.395c.857 0 1.819-.009 2.883-.027l-.622 3.332c-.903.036-1.742.054-2.518.054h-2.544c-1.282 0-2.346-.13-3.195-.39-.848-.26-1.524-.653-2.03-1.182-.505-.528-.861-1.191-1.069-1.988-.207-.797-.311-1.734-.311-2.809v-1.478c0-1.128.113-2.109.338-2.942.226-.833.604-1.527 1.137-2.083.532-.555 1.227-.972 2.084-1.25.857-.277 1.918-.416 3.181-.416 2.274 0 3.898.47 4.873 1.411.974.94 1.461 2.253 1.461 3.937v.564c0 .591-.036 1.075-.108 1.451-.072.377-.203.681-.393.914a1.46 1.46 0 0 1-.744.484c-.307.09-.686.134-1.137.134h-6.388Zm-9.625 5.59h-4.304v-8.842c0-1.003.126-1.845.379-2.526.252-.68.636-1.227 1.15-1.639.515-.412 1.155-.703 1.922-.873.767-.17 1.656-.256 2.667-.256h1.529c.496 0 1.07.019 1.719.054l-.65 3.467c-.162-.018-.46-.031-.893-.04a60.74 60.74 0 0 0-1.272-.014c-.488 0-.88.045-1.178.134-.298.09-.528.225-.69.404-.163.179-.267.416-.312.712-.045.295-.067.64-.067 1.034v8.384Zm-10.02-7.901c0-.699-.036-1.258-.108-1.68-.073-.42-.208-.743-.406-.967a1.507 1.507 0 0 0-.799-.457c-.334-.08-.762-.12-1.286-.12-.523 0-.952.04-1.286.12-.333.081-.6.233-.798.457-.199.224-.339.546-.42.968-.08.42-.121.98-.121 1.679v1.72c0 .699.04 1.263.121 1.693.081.43.221.757.42.98.198.225.465.377.798.457.334.081.763.121 1.286.121.524 0 .952-.04 1.286-.12.334-.081.6-.233.799-.457.198-.224.333-.551.406-.981.072-.43.108-.994.108-1.693v-1.72Zm-2.599-6.584c1.263 0 2.337.108 3.221.323.885.215 1.602.582 2.153 1.102.55.52.952 1.209 1.204 2.069.253.86.38 1.934.38 3.224v1.478c0 1.272-.127 2.338-.38 3.198-.252.86-.654 1.55-1.204 2.07-.55.52-1.268.89-2.153 1.115-.884.223-1.958.335-3.22.335-1.264 0-2.338-.112-3.222-.335-.884-.224-1.606-.596-2.166-1.116-.559-.52-.965-1.209-1.217-2.069-.253-.86-.38-1.926-.38-3.198v-1.478c0-1.29.127-2.365.38-3.224.252-.86.658-1.55 1.217-2.07.56-.519 1.282-.886 2.166-1.101.884-.215 1.958-.323 3.221-.323Zm-12.03.376h1.692c.641 0 1.476.018 2.504.054l-.65 3.386a38.21 38.21 0 0 0-.838-.04l-.758-.027c-.253-.01-.52-.014-.8-.014h-.987c-.56 0-1.02.036-1.38.108-.361.072-.646.215-.853.43-.208.215-.352.52-.433.914-.082.394-.122.913-.122 1.558v1.424c0 .645.04 1.165.122 1.559.08.394.23.699.446.914.217.215.506.358.867.43.36.071.812.107 1.353.107h2.07c.605 0 1.277-.018 2.018-.054l-.65 3.36c-.722.017-1.394.03-2.017.04-.623.009-1.132.013-1.53.013-1.335 0-2.45-.116-3.342-.35-.894-.232-1.616-.6-2.166-1.101-.55-.502-.943-1.156-1.177-1.962-.235-.806-.352-1.791-.352-2.956v-1.424c0-1.146.122-2.123.365-2.929.243-.806.645-1.464 1.205-1.975.559-.51 1.28-.882 2.165-1.115.884-.233 1.967-.35 3.249-.35Zm-10.899 3.494c.632.286 1.137.65 1.516 1.088.379.439.65.959.812 1.559.162.6.244 1.294.244 2.082v.403c0 .968-.127 1.796-.38 2.486a3.761 3.761 0 0 1-1.271 1.72c-.596.457-1.38.793-2.355 1.008-.975.215-2.175.322-3.6.322H112.177c-.551 0-.122-.004-.817-.013-.695-.01-1.484-.023-2.368-.04l.676-3.601c1.426.035 1.588.053 2.59.053h1.898a9.51 9.51 0 0 0 1.476-.094c.388-.062.694-.165.92-.309.225-.143.379-.336.46-.578.081-.241.122-.55.122-.927 0-.34-.023-.627-.068-.86a1.082 1.082 0 0 0-.297-.577 1.74 1.74 0 0 0-.623-.377c-.262-.098-3.883-1.146-4.55-1.424-.668-.277-1.196-.631-1.584-1.061a3.475 3.475 0 0 1-.799-1.532c-.144-.591-.216-1.28-.216-2.07v-.429c0-.86.126-1.621.379-2.284a3.96 3.96 0 0 1 1.245-1.693c.577-.466 1.33-.82 2.26-1.062.93-.241 2.062-.362 3.397-.362h1.032c.532 0 1.11.004 1.732.013.623.01 1.331.023 2.125.04l-.676 3.601a145.355 145.355 0 0 0-3.587-.054h-.707c-.541 0-.992.032-1.353.095-.361.062-.641.16-.84.295a1.075 1.075 0 0 0-.42.551c-.08.233-.12.52-.12.86 0 .305.022.564.067.78.045.214.135.393.27.537.136.143.33.264.582.362.253.099 4.122 1.205 4.754 1.492Zm-17.453-.726c-.487 0-.88.04-1.177.121-.298.08-.533.224-.704.43-.171.206-.289.488-.352.847-.063.358-.095.824-.095 1.397h4.683c0-.573-.031-1.039-.094-1.397-.064-.359-.185-.64-.366-.847a1.42 1.42 0 0 0-.717-.43c-.298-.08-.69-.12-1.178-.12Zm-2.328 5.751c.018.466.068.842.15 1.128.08.287.225.52.432.7.208.178.483.3.826.362.343.063.776.094 1.3.094h2.395c.857 0 1.818-.009 2.883-.027l-.623 3.332c-.902.036-1.741.054-2.518.054h-2.544c-1.281 0-2.346-.13-3.194-.39-.848-.26-1.525-.653-2.03-1.182-.505-.528-.862-1.191-1.07-1.988-.207-.797-.31-1.734-.31-2.809v-1.478c0-1.128.112-2.109.338-2.942.225-.833.604-1.527 1.137-2.083.532-.555 1.227-.972 2.084-1.25.857-.277 1.917-.416 3.18-.416 2.274 0 3.899.47 4.873 1.411.975.94 1.462 2.253 1.462 3.937v.564c0 .591-.036 1.075-.108 1.451-.073.377-.204.681-.393.914a1.46 1.46 0 0 1-.744.484c-.307.09-.686.134-1.137.134h-6.389ZM84.65 96l2.816 9.755L90.36 96h4.44l-4.9 14.054h-5.008L79.939 96h4.71Zm-9.954 14.054h4.304V96h-4.304v14.054Zm4.602-17.924c0 .735-.172 1.264-.515 1.586-.343.323-.983.484-1.922.484-.956 0-1.606-.161-1.948-.484-.343-.322-.515-.85-.515-1.586 0-.698.172-1.213.515-1.544.342-.332.992-.498 1.948-.498.939 0 1.58.166 1.922.498.343.331.515.846.515 1.544Z" fill="#FEFEFE"/><g transform="translate(20 85)"><mask id="b" fill="#fff"><use xlink:href="#a"/></mask><path d="M31.227 9.82c0-.377 0-.753-.003-1.124a45.58 45.58 0 0 0-.014-.95c-.009-.69-.07-1.38-.182-2.061a6.936 6.936 0 0 0-.651-1.961 6.631 6.631 0 0 0-2.903-2.88A6.964 6.964 0 0 0 25.5.199a14.365 14.365 0 0 0-2.077-.182 39.087 39.087 0 0 0-.954-.012C22.09 0 21.714 0 21.337 0H9.89c-.378 0-.756 0-1.132.004-.319 0-.637.004-.955.012-.696.01-1.39.07-2.077.182a6.97 6.97 0 0 0-1.974.647A6.633 6.633 0 0 0 .85 3.724a6.924 6.924 0 0 0-.65 1.96C.085 6.367.024 7.056.015 7.747a45.58 45.58 0 0 0-.014.95C0 9.067 0 9.443 0 9.819v11.362c0 .376 0 .751.002 1.124 0 .317.006.631.014.949.01.69.07 1.38.183 2.061.118.682.337 1.343.65 1.961a6.633 6.633 0 0 0 2.903 2.88 6.972 6.972 0 0 0 1.974.646 13.84 13.84 0 0 0 2.077.183A109.673 109.673 0 0 0 9.89 31l11.447-.001c.378 0 .755 0 1.132-.004.318 0 .636-.004.954-.011.696-.009 1.39-.07 2.077-.183a6.966 6.966 0 0 0 1.974-.647 6.631 6.631 0 0 0 2.903-2.879 6.938 6.938 0 0 0 .65-1.96c.113-.682.174-1.371.183-2.062.009-.318.013-.632.014-.95.003-.372.003-.747.003-1.123V9.819Z" fill="#FEFEFE" mask="url(#b)"/></g><g transform="translate(20 85)"><mask id="d" fill="#fff"><use xlink:href="#c"/></mask><path d="M31.227 0H0v31h31.227V0Z" fill="#FEFEFE" mask="url(#d)"/></g><g transform="translate(26.013 90.965)"><mask id="g" fill="#fff"><use xlink:href="#e"/></mask><path d="M0 0v13.762c0 .994.125 1.828.375 2.502.25.675.63 1.216 1.14 1.624.51.409 1.144.697 1.904.866.76.168 1.64.253 2.641.253h1.185c.491 0 .862-.027.862-.027l.658-3.538c-.161.017-1.865.008-2.276.008-.483 0-.872-.066-1.166-.155-.295-.089-.523-.222-.684-.4-.161-.177-.264-.412-.309-.705a6.884 6.884 0 0 1-.066-1.024V0H0Z" fill="url(#f)" mask="url(#g)"/></g><g transform="translate(34.537 90.975)"><mask id="j" fill="#fff"><use xlink:href="#h"/></mask><path d="M7.53 0C6.12 0 4.932.106 3.967.32c-.965.212-1.742.545-2.331.997A3.724 3.724 0 0 0 .375 3.02C.125 3.703 0 4.523 0 5.48V6.127l.001.23c.004.281.018.561.047.84.028.275.07.549.13.819.058.258.132.512.232.756.093.228.207.447.342.653l.068.1c.09.129.187.253.295.366a2.2 2.2 0 0 0 .38.312c.143.094.294.174.447.248.17.082.341.158.513.235.062.028 1.183.417 1.297.454l.35.114.337.11.306.099.255.082.183.06.092.03c.178.065.352.154.502.271.16.125.284.284.355.473.069.183.086.38.1.571.015.197.022.394.024.59v.056c0 .373-.04.679-.12.918-.081.24-.233.43-.456.572-.224.142-.528.244-.912.306a9.417 9.417 0 0 1-1.46.093c-.84 0-.757-.017-2.169-.053l-.67 3.565c.74.043 1.052.053 1.499.053h1.286c1.412 0 2.6-.106 3.565-.319.965-.213 1.742-.545 2.331-.998a3.724 3.724 0 0 0 1.26-1.702c.25-.683.375-1.504.375-2.461v-.645l-.001-.231a9.577 9.577 0 0 0-.047-.84 7.115 7.115 0 0 0-.13-.819 4.697 4.697 0 0 0-.232-.756 3.842 3.842 0 0 0-.342-.653 3.024 3.024 0 0 0-.363-.465 2.2 2.2 0 0 0-.38-.313 3.964 3.964 0 0 0-.447-.248c-.17-.082-.341-.158-.513-.235a75.942 75.942 0 0 0-1.297-.454 389.495 389.495 0 0 0-.687-.223l-.306-.1-.255-.082-.183-.06c-.031-.01-.062-.019-.092-.03a1.84 1.84 0 0 1-.502-.27 1.083 1.083 0 0 1-.355-.474 2.049 2.049 0 0 1-.1-.571 8.655 8.655 0 0 1-.024-.59v-.056c0-.372.04-.678.12-.918.081-.24.233-.43.457-.572.223-.142.527-.244.91-.306a9.412 9.412 0 0 1 1.461-.093c.84 0 .757.018 2.169.053l.67-3.565A22.603 22.603 0 0 0 8.816 0H7.531Z" fill="url(#i)" mask="url(#j)"/></g><g transform="translate(39.996 104.799)"><mask id="m" fill="#fff"><use xlink:href="#k"/></mask><path d="M.526 6.231a9.188 9.188 0 0 0-.326 4.97h1.66c.204 0 .409-.001.613-.004.318 0 .636-.003.954-.011a13.83 13.83 0 0 0 2.077-.182 6.961 6.961 0 0 0 1.974-.647 6.63 6.63 0 0 0 2.903-2.88 6.936 6.936 0 0 0 .65-1.96c.113-.682.174-1.371.183-2.062.008-.317.012-.631.014-.95.002-.371.002-.747.002-1.123V.188A9.373 9.373 0 0 0 9.366 0c-3.87 0-7.49 2.4-8.84 6.231" fill="url(#l)" mask="url(#m)"/></g><g transform="translate(45.567 105.585)"><mask id="p" fill="#fff"><use xlink:href="#n"/></mask><path d="M5.545 0s.084.446-.066 1.63c0 0-1.946.184-3.44.815 0 0-.889-.725-2.041-1.352 0 0 1.842.99 2.242.919.777-.137 1.673-.408 2.923-.575.25-.033.382-1.437.382-1.437" fill="url(#o)" mask="url(#p)"/></g><g transform="translate(20 85)"><mask id="r" fill="#fff"><use xlink:href="#q"/></mask><path d="M29.523 31c.27-.56.57-1.023.805-1.084.322-.083.622-.173.899-.265v-.236c-.808.205-1.425.317-1.425.317-.234.439-.434.87-.604 1.268h.325Z" fill="#1D1D1B" mask="url(#r)"/></g><g transform="translate(20 85)"><mask id="t" fill="#fff"><use xlink:href="#s"/></mask><path d="M26.208 26.704s-1.176.563-2.908 1.869c0 0-1.337-.647-1.966-1.399 0 0-.121-.942.77-3.036 0 0-.77 2.261-.384 2.879.243.387 1.287 1.174 1.702.966 1.839-.92 2.786-1.28 2.786-1.28" fill="#1D1D1B" mask="url(#t)"/></g><g transform="translate(20 85)"><mask id="v" fill="#fff"><use xlink:href="#u"/></mask><path d="m29.657 29.176 1.57-.362v-.103c-.595.096-1.141.167-1.35.142-.548-.064-2.437-2.018-2.546-2.308-.11-.29.223-2.375.5-2.803.278-.428 3.265-1.174 3.265-1.174-1.568.253-3.424.909-3.424.909a11.706 11.706 0 0 0-.753 3.219c1.342 1.765 2.738 2.48 2.738 2.48" fill="#1D1D1B" mask="url(#v)"/></g><g transform="translate(39.996 105.063)"><mask id="y" fill="#fff"><use xlink:href="#w"/></mask><path d="M7.744.075C6.364.324 5.555 1.4 5.353 1.703c-.145.057-1.772.715-3.344 2.136l-.006.007c-.154.02-.364.06-.5.136-.296.455-.555.94-.772 1.455l-.007.016a9.482 9.482 0 0 0-.042.103l-.014.033-.035.089-.015.04a8.594 8.594 0 0 0-.033.086l-.014.04a9.271 9.271 0 0 0-.042.114l-.003.009v.003a9.91 9.91 0 0 0-.057.164l-.01.034a9.51 9.51 0 0 0-.052.162l-.01.03a9.52 9.52 0 0 0-.047.162l-.002.008a9.263 9.263 0 0 0-.047.171l-.007.027a8.9 8.9 0 0 0-.043.172 8.993 8.993 0 0 0-.044.191v.001l-.037.182A9.18 9.18 0 0 0 0 8.972c.596-1.084 1.007-1.49 1.14-1.604a12.533 12.533 0 0 0 2.207 1.488c.024.233.123 1.06.39 2.058.592-.02 1.182-.079 1.767-.175a6.961 6.961 0 0 0 1.973-.647 6.654 6.654 0 0 0 1.534-1.07 36.429 36.429 0 0 1-2.386-2.203c.324-2.166.835-3.39.922-3.588 1.98-.697 3.26-.83 3.609-.855l.07-.007.002-.128c.002-.372.002-.747.002-1.123V.405l-.02-.007C10.932.315 9.808 0 8.648 0c-.304 0-.61.022-.905.075m-6.56 7.18c.003-.189.035-.741.28-1.817.217-.956.482-1.35.626-1.51a.893.893 0 0 1 .047-.048l.04-.036c.01-.007.015-.012.018-.015 1.457-1.283 2.93-1.91 3.174-2.008 1.248.707 1.886 1.235 2.06 1.388-.115.269-.604 1.49-.918 3.583-.296.132-1.646.762-3.119 1.957a12.45 12.45 0 0 1-2.207-1.494" fill="url(#x)" mask="url(#y)"/></g><g transform="translate(39.998 112.69)"><mask id="A" fill="#fff"><use xlink:href="#z"/></mask><path d="M3.448 3.309a12.458 12.458 0 0 1-.336-1.852S2.102 1.024 1.1 0c0 0-.55.527-1.1 1.616A9.2 9.2 0 0 0 .197 3.31h3.251Z" mask="url(#A)"/></g><g transform="translate(47.201 105.538)"><mask id="D" fill="#fff"><use xlink:href="#B"/></mask><path d="M0 4.22C0 5.82.96 7.216 2.378 7.942c.307-.37.575-.772.797-1.203a6.936 6.936 0 0 0 .65-1.961c.113-.682.174-1.37.183-2.062.009-.317.012-.631.015-.949.002-.372.002-.748.002-1.124V0C1.755.268 0 2.055 0 4.22" fill="url(#C)" mask="url(#D)"/></g></g></svg>