<svg xmlns="http://www.w3.org/2000/svg" width="200" height="200"><path fill="#FFF" fill-rule="evenodd" d="M48.244 87c7.306 0 13.235 6.03 13.235 13.458 0 7.43-5.929 13.453-13.235 13.453-7.314 0-13.244-6.024-13.244-13.453C35 93.03 40.93 87 48.244 87zm0 26.086c6.86 0 12.422-5.657 12.422-12.628 0-6.98-5.561-12.633-12.422-12.633-6.874 0-12.43 5.652-12.43 12.633 0 6.971 5.556 12.628 12.43 12.628zm-11.413-12.72c4.52 1.447 8.782 5.926 10.072 11.655-6.353-.84-10.057-6.146-10.072-11.655zm22.762 0c-.013 5.51-3.72 10.816-10.071 11.655 1.237-5.729 5.552-10.208 10.071-11.655zm-11.366 11.655c-4.817-7.558-3.777-17.924.005-23.507 3.606 5.583 4.734 15.949-.005 23.507zm16.838-23.448h2.913v4.046h5.36v-4.046h2.914v10.543H73.34v-4.547h-5.36v4.547h-2.914V88.573zm13.525 0h9.905v1.95h-6.993v2.258h6.418v1.802h-6.418v2.584h7.142v1.949H78.59V88.573zm14.71 4.77h3.191c1.317 0 2.003-.443 2.003-1.506 0-1.018-.686-1.462-2.003-1.462H93.3v2.968zm-2.913-4.77h7.143c2.374 0 3.877 1.315 3.877 2.91 0 1.24-.612 2.17-2.096 2.643v.028c1.428.312 1.836 1.39 1.929 2.468.055.664.019 1.919.556 2.494h-2.912c-.334-.662-.315-1.682-.464-2.525-.204-1.107-.742-1.594-2.207-1.594H93.3v4.12h-2.913V88.572zm19.2 8.742c1.132 0 2.152-.295 2.152-1.387 0-1.079-.834-1.507-2.096-1.507h-3.172v2.894h3.116zm-.167-4.474c1.04 0 1.781-.37 1.781-1.256 0-.989-.964-1.21-2.003-1.21h-2.727v2.466h2.95zm-5.862-4.268h6.233c2.524 0 4.23.65 4.23 2.615 0 1.047-.63 1.741-1.8 2.2 1.633.367 2.432 1.358 2.432 2.672 0 2.141-2.283 3.056-4.676 3.056h-6.419V88.573zm19.237 6.468l-1.67-3.869h-.035l-1.726 3.87h3.431zm-3.153-6.468h2.987l4.953 10.543h-3.024l-1.002-2.347h-4.952l-1.04 2.347h-2.95l5.028-10.543zm8.867 0h2.915v8.594h6.455v1.949h-9.37V88.573zm10.408 10.544V88.573h2.913v10.544h-2.913zm5.25-10.544h9.313v1.95h-6.401v2.436h5.547v1.802h-5.547v4.355h-2.912V88.573zm10.779 0h9.906v1.95h-6.994v2.258h6.419v1.802h-6.42v2.584H165v1.949h-10.054V88.573zm-89.881 12.971h2.893l5.53 7.074h.036v-7.074h2.727v10.544h-2.913l-5.51-7.06h-.037v7.06h-2.726v-10.544zm24.822 6.556c0 2.85-2.115 4.238-5.658 4.238-3.581 0-5.64-1.357-5.64-4.238v-6.556h2.913v6.556c0 1.152.371 2.29 2.727 2.29 2.078 0 2.745-.71 2.745-2.29v-6.556h2.913v6.556zm5.388-4.607h-3.97v-1.95h10.852v1.95h-3.97v8.594h-2.912v-8.594zm11.245 2.821h3.191c1.317 0 2.004-.443 2.004-1.507 0-1.02-.687-1.462-2.004-1.462h-3.191v2.969zm-2.912-4.77h7.142c2.376 0 3.877 1.314 3.877 2.908 0 1.242-.612 2.172-2.097 2.644v.03c1.429.31 1.838 1.388 1.93 2.465.055.665.019 1.921.556 2.496h-2.912c-.334-.664-.315-1.683-.464-2.525-.204-1.106-.742-1.595-2.207-1.595h-2.913v4.12h-2.912v-10.543zm13.764 10.544v-10.544h2.912v10.544h-2.912zm8.59-8.595h-3.97v-1.95h10.852v1.95h-3.97v8.594h-2.912v-8.594zm8.59 8.595v-10.544h2.912v10.544h-2.913zm11.037-1.698c2.616 0 3.598-1.772 3.598-3.53 0-1.846-.982-3.618-3.598-3.618-2.617 0-3.6 1.772-3.6 3.618 0 1.758.983 3.53 3.6 3.53zm0-9.098c4.08 0 6.51 2.437 6.51 5.568 0 3.043-2.43 5.478-6.51 5.478-4.081 0-6.512-2.435-6.512-5.478 0-3.131 2.43-5.568 6.512-5.568zm8.22.252h2.895l5.527 7.074h.038v-7.074h2.727v10.544h-2.912l-5.51-7.06h-.038v7.06h-2.727v-10.544z"/></svg>