<svg width="200" height="200" xmlns="http://www.w3.org/2000/svg"><title>Logo_7egend</title><path d="M155.98 98.427c-.01-6.278-2.901-6.285-5.713-6.285h-3.428v15.997h3.428c2.812 0 5.703-.007 5.714-6.285v-3.427zm-99.986-6.855l-9.14 21.136h-4.57l9.14-21.136H40v-3.998h15.994v3.998zm94.253 21.136h-7.426V87.574h7.426c6.274 0 9.752 2.9 9.753 10.282v4.57c-.001 7.381-3.48 10.282-9.753 10.282zm-25.134 0h-3.999V87.574h4.57l8.569 17.708V87.574h3.999v25.134h-4.57L125.113 95v17.708zm-8.568-21.136h-10.282v6.855h9.14v3.427h-9.14v6.855h10.282v3.999h-14.852V87.574h14.852v3.998zm-41.129 0H65.134v6.855h9.14v3.427h-9.14v6.855h10.282v3.999H60.564V87.574h14.852v3.998zm17.39 11.425h-4.295v-3.999h8.59v5.743c-.016 5.089-3.83 8.54-8.55 8.54-4.729 0-8.586-3.445-8.587-8.57l.011-4.57-.01-4.57c0-5.125 3.857-8.571 8.586-8.571 4.73 0 8.55 3.465 8.55 8.57h-4.288c-.115-2.352-1.41-4.331-4.244-4.331-2.226 0-4.26 1.51-4.265 4.332v9.14c.005 2.822 2.04 4.29 4.265 4.29 2.834 0 4.13-1.937 4.244-4.29h-.007v-1.714z" fill="#FFF" fill-rule="evenodd"/></svg>